<svg xmlns="http://www.w3.org/2000/svg" width="1200" height="630" viewBox="0 0 1200 630" role="img" aria-labelledby="title desc">
  <title id="title">WODIQ</title>
  <desc id="desc">Stop searching for today's workout.</desc>
  <rect width="1200" height="630" fill="#f7f5ef"/>
  <path d="M0 126h1200M0 252h1200M0 378h1200M0 504h1200M120 0v630M240 0v630M360 0v630M480 0v630M600 0v630M720 0v630M840 0v630M960 0v630M1080 0v630" stroke="#080808" stroke-opacity=".055"/>
  <rect x="88" y="82" width="1024" height="466" rx="18" fill="#fffef9" stroke="#080808" stroke-opacity=".16"/>
  <rect x="136" y="126" width="88" height="88" rx="18" fill="#ffb000"/>
  <path d="M179.7 153.7c12.8 0 23.2 10.4 23.2 23.2s-10.4 23.2-23.2 23.2-23.2-10.4-23.2-23.2 10.4-23.2 23.2-23.2Zm0 11.2c-6.6 0-12 5.4-12 12s5.4 12 12 12 12-5.4 12-12-5.4-12-12-12Z" fill="#080808"/>
  <text x="256" y="183" font-family="Inter, ui-sans-serif, system-ui, -apple-system, BlinkMacSystemFont, 'Segoe UI', sans-serif" font-size="48" font-weight="900" fill="#080808">WODIQ</text>
  <text x="136" y="306" font-family="Inter, ui-sans-serif, system-ui, -apple-system, BlinkMacSystemFont, 'Segoe UI', sans-serif" font-size="70" font-weight="950" fill="#080808">Stop searching for</text>
  <text x="136" y="384" font-family="Inter, ui-sans-serif, system-ui, -apple-system, BlinkMacSystemFont, 'Segoe UI', sans-serif" font-size="70" font-weight="950" fill="#080808">today's workout.</text>
  <text x="140" y="448" font-family="Inter, ui-sans-serif, system-ui, -apple-system, BlinkMacSystemFont, 'Segoe UI', sans-serif" font-size="28" font-weight="700" fill="#6c6961">From Instagram saves and generic prompts to one structured session.</text>
  <rect x="140" y="492" width="168" height="48" rx="6" fill="#080808"/>
  <text x="172" y="525" font-family="Inter, ui-sans-serif, system-ui, -apple-system, BlinkMacSystemFont, 'Segoe UI', sans-serif" font-size="18" font-weight="900" fill="#ffffff">wodiq.nl</text>
</svg>
